<svg width="25" height="25" viewBox="0 0 25 25" fill="none" xmlns="http://www.w3.org/2000/svg">
<path d="M24.8907 5.98934L11.2907 5.98934M11.2907 5.98934C11.2907 4.22203 9.85806 2.78934 8.09075 2.78934C6.32344 2.78934 4.89075 4.22203 4.89075 5.98934M11.2907 5.98934C11.2907 7.75665 9.85806 9.18934 8.09075 9.18934C6.32344 9.18934 4.89075 7.75665 4.89075 5.98934M4.89075 5.98934L0.890747 5.98934M24.8907 18.7893L20.8907 18.7893M20.8907 18.7893C20.8907 17.022 19.4581 15.5893 17.6907 15.5893C15.9234 15.5893 14.4907 17.022 14.4907 18.7893M20.8907 18.7893C20.8907 20.5566 19.4581 21.9893 17.6907 21.9893C15.9234 21.9893 14.4907 20.5566 14.4907 18.7893M14.4907 18.7893L0.890747 18.7893" stroke="#EAF0FF" stroke-width="2"/>
</svg>
