<svg width="21" height="21" viewBox="0 0 21 21" fill="none" xmlns="http://www.w3.org/2000/svg">
<path d="M15.9922 7.81208C15.9922 8.03309 16.08 8.24505 16.2363 8.40133C16.3925 8.55761 16.6045 8.64541 16.8255 8.64541C17.0465 8.64541 17.2585 8.55761 17.4148 8.40133C17.571 8.24505 17.6588 8.03309 17.6588 7.81208V4.22041C17.6588 3.9994 17.571 3.78743 17.4148 3.63115C17.2585 3.47487 17.0465 3.38708 16.8255 3.38708H13.2422C13.0212 3.38708 12.8092 3.47487 12.6529 3.63115C12.4966 3.78743 12.4088 3.9994 12.4088 4.22041C12.4088 4.44142 12.4966 4.65338 12.6529 4.80966C12.8092 4.96594 13.0212 5.05374 13.2422 5.05374H14.8172L10.9922 8.87874L6.12551 4.02041C5.96609 3.88389 5.76103 3.81255 5.5513 3.82065C5.34157 3.82875 5.14262 3.91569 4.99421 4.06411C4.8458 4.21252 4.75885 4.41147 4.75075 4.6212C4.74265 4.83093 4.81399 5.03599 4.95051 5.19541L9.80884 10.0537L4.56718 15.2954C4.48907 15.3729 4.42708 15.465 4.38477 15.5666C4.34246 15.6681 4.32068 15.7771 4.32068 15.8871C4.32068 15.9971 4.34246 16.106 4.38477 16.2076C4.42708 16.3091 4.48907 16.4013 4.56718 16.4787C4.64465 16.5568 4.73681 16.6188 4.83836 16.6612C4.93991 16.7035 5.04883 16.7252 5.15884 16.7252C5.26885 16.7252 5.37778 16.7035 5.47932 16.6612C5.58087 16.6188 5.67304 16.5568 5.75051 16.4787L15.9922 6.23708V7.81208Z" fill="#8996B8" fill-opacity="0.6"/>
<path d="M16.8255 11.4537C16.6045 11.4537 16.3925 11.5415 16.2362 11.6978C16.0799 11.8541 15.9921 12.0661 15.9921 12.2871V13.8787L13.6755 11.5537C13.5186 11.3968 13.3057 11.3087 13.0838 11.3087C12.8619 11.3087 12.6491 11.3968 12.4921 11.5537C12.3352 11.7107 12.2471 11.9235 12.2471 12.1454C12.2471 12.3673 12.3352 12.5802 12.4921 12.7371L14.8005 15.0537H13.2338C13.0128 15.0537 12.8008 15.1415 12.6446 15.2978C12.4883 15.4541 12.4005 15.6661 12.4005 15.8871C12.4005 16.1081 12.4883 16.3201 12.6446 16.4763C12.8008 16.6326 13.0128 16.7204 13.2338 16.7204H16.8255C16.9431 16.7211 17.0595 16.6969 17.1671 16.6495C17.2747 16.602 17.371 16.5322 17.4497 16.4449C17.5284 16.3575 17.5877 16.2545 17.6238 16.1425C17.6598 16.0306 17.6718 15.9123 17.6588 15.7954V12.2871C17.6588 12.0661 17.571 11.8541 17.4147 11.6978C17.2585 11.5415 17.0465 11.4537 16.8255 11.4537Z" fill="#8996B8" fill-opacity="0.6"/>
</svg>
