<svg width="19" height="18" viewBox="0 0 19 18" fill="none" xmlns="http://www.w3.org/2000/svg">
<g clip-path="url(#clip0_1683_419)">
<path d="M4.6581 7.66748C4.9933 6.65335 5.64021 5.77099 6.50654 5.14626C7.37287 4.52154 8.41437 4.18636 9.48246 4.18856C10.6932 4.18856 11.7879 4.61841 12.6476 5.32193L15.1493 2.82092C13.6248 1.49196 11.6711 0.671661 9.48246 0.671661C6.0938 0.671661 3.17655 2.60456 1.7738 5.43584L4.6581 7.66748Z" fill="white"/>
<path d="M12.3769 13.5765C11.596 14.0801 10.6044 14.3488 9.48253 14.3488C8.4187 14.351 7.38114 14.0185 6.51673 13.3983C5.65233 12.7782 5.00488 11.9019 4.66606 10.8935L1.77173 13.0907C2.48187 14.5281 3.58088 15.7375 4.9439 16.5815C6.30692 17.4256 7.87934 17.8705 9.48253 17.8657C11.5838 17.8657 13.5912 17.1184 15.095 15.7164L12.3776 13.5765H12.3769Z" fill="white"/>
<path d="M15.095 15.7164C16.6675 14.2492 17.6884 12.0656 17.6884 9.26867C17.6884 8.76001 17.6103 8.21338 17.4935 7.70544H9.48254V11.0275H14.0934C13.8663 12.1444 13.2552 13.0091 12.3776 13.5765L15.095 15.7164Z" fill="white"/>
<path d="M4.666 10.8935C4.49073 10.3697 4.40169 9.82097 4.40235 9.26866C4.40235 8.70842 4.49191 8.17039 4.65812 7.66746L1.77382 5.43582C1.18376 6.627 0.879587 7.93936 0.885459 9.26866C0.885459 10.6442 1.20427 11.9409 1.77167 13.0907L4.666 10.8935Z" fill="white"/>
</g>
<defs>
<clipPath id="clip0_1683_419">
<rect width="17.194" height="17.194" fill="white" transform="translate(0.885498 0.671646)"/>
</clipPath>
</defs>
</svg>
