<svg width="21" height="21" viewBox="0 0 21 21" fill="none" xmlns="http://www.w3.org/2000/svg">
<path d="M6.42616 5.88707H14.7595V7.37874C14.7595 7.75374 15.2095 7.93707 15.4678 7.67041L17.7928 5.34541C17.9595 5.17874 17.9595 4.92041 17.7928 4.75374L15.4678 2.42874C15.4091 2.37116 15.3346 2.33225 15.2538 2.31692C15.1729 2.3016 15.0894 2.31054 15.0136 2.34262C14.9379 2.3747 14.8733 2.42849 14.8281 2.4972C14.7829 2.56592 14.759 2.64648 14.7595 2.72874V4.22041H5.59282C5.13449 4.22041 4.75949 4.59541 4.75949 5.05374V8.38707C4.75949 8.84541 5.13449 9.22041 5.59282 9.22041C6.05116 9.22041 6.42616 8.84541 6.42616 8.38707V5.88707ZM14.7595 14.2204H6.42616V12.7287C6.42616 12.3537 5.97616 12.1704 5.71782 12.4371L3.39282 14.7621C3.22616 14.9287 3.22616 15.1871 3.39282 15.3537L5.71782 17.6787C5.77657 17.7363 5.85105 17.7752 5.93187 17.7906C6.01269 17.8059 6.09624 17.7969 6.17199 17.7649C6.24774 17.7328 6.3123 17.679 6.35753 17.6103C6.40276 17.5416 6.42664 17.461 6.42616 17.3787V15.8871H15.5928C16.0512 15.8871 16.4262 15.5121 16.4262 15.0537V11.7204C16.4262 11.2621 16.0512 10.8871 15.5928 10.8871C15.1345 10.8871 14.7595 11.2621 14.7595 11.7204V14.2204Z" fill="#8996B8" fill-opacity="0.6"/>
</svg>
