<svg width="16" height="20" viewBox="0 0 16 20" fill="none" xmlns="http://www.w3.org/2000/svg">
<path d="M4.147 19.3215C3.77599 19.0747 3.44717 18.7697 3.17318 18.4182C2.87179 18.0555 2.59255 17.6749 2.33696 17.2786C1.73719 16.3999 1.26684 15.4396 0.94033 14.4271C0.548096 13.251 0.358154 12.1237 0.358154 11.0211C0.358154 9.78968 0.624544 8.71472 1.14556 7.81146C1.53178 7.10547 2.09963 6.51549 2.79035 6.10257C3.45974 5.6868 4.22888 5.45927 5.01674 5.44395C5.29253 5.44395 5.5895 5.48394 5.9047 5.56039C6.1311 5.62448 6.4069 5.72563 6.74386 5.85147C7.17255 6.01672 7.40836 6.11786 7.48834 6.14256C7.73944 6.2343 7.95055 6.27429 8.11638 6.27429C8.24222 6.27429 8.41982 6.2343 8.62152 6.17314C8.73502 6.13315 8.94907 6.06258 9.25544 5.93145C9.55888 5.82089 9.79763 5.72622 9.98757 5.65565C10.2787 5.56979 10.5603 5.49041 10.8114 5.45042C11.1091 5.40349 11.4112 5.39106 11.7118 5.41337C12.2325 5.44741 12.7455 5.55777 13.2342 5.74092C14.0334 6.06259 14.6797 6.56479 15.1607 7.27869C14.9574 7.404 14.7666 7.54854 14.5909 7.71032C14.2084 8.04938 13.8826 8.44742 13.6259 8.88937C13.2903 9.49334 13.1163 10.1737 13.1207 10.8647C13.1331 11.7132 13.3507 12.4606 13.7794 13.1069C14.0945 13.5859 14.5041 13.9955 14.9831 14.3107C15.2283 14.4759 15.4394 14.5894 15.6417 14.6658C15.5471 14.9599 15.4459 15.2445 15.3265 15.5268C15.0558 16.1597 14.7277 16.7666 14.3462 17.3397C14.0064 17.8331 13.74 18.2007 13.5377 18.4453C13.2225 18.8187 12.919 19.1039 12.6127 19.3027C12.2757 19.5261 11.8776 19.6455 11.473 19.6455C11.199 19.656 10.9251 19.6229 10.6615 19.5473C10.4351 19.4709 10.211 19.3879 9.99052 19.2933C9.76126 19.188 9.52486 19.0989 9.28308 19.0269C8.68544 18.8734 8.05883 18.8724 7.4607 19.0239C7.21548 19.0945 6.97967 19.1768 6.7468 19.278C6.41925 19.4156 6.20167 19.5079 6.07583 19.5473C5.82473 19.6208 5.56422 19.6667 5.30077 19.682C4.89324 19.682 4.51336 19.5655 4.137 19.3297L4.147 19.3215ZM9.52183 4.84648C8.98905 5.11287 8.48039 5.22637 7.97525 5.18932C7.89586 4.68065 7.97525 4.16022 8.18636 3.5904C8.36609 3.10764 8.63166 2.66138 8.97024 2.27315C9.32778 1.86446 9.76164 1.52948 10.2475 1.28698C10.765 1.02059 11.2584 0.876517 11.73 0.855347C11.7911 1.38813 11.73 1.91208 11.5342 2.47838C11.3529 2.97898 11.0879 3.4451 10.7503 3.85679C10.4057 4.26603 9.98286 4.60232 9.50655 4.8459L9.52183 4.84648Z" fill="white"/>
</svg>
