<svg width="21" height="21" viewBox="0 0 21 21" fill="none" xmlns="http://www.w3.org/2000/svg">
<path d="M5.25891 14.0459L5.6446 13.4027L5.46653 13.2959H5.25891V14.0459ZM5.25891 6.05113V6.80113H5.46653L5.6446 6.69437L5.25891 6.05113ZM11.9256 2.05374H12.6756C12.6756 1.78358 12.5303 1.53429 12.2952 1.40114C12.0601 1.268 11.7716 1.27158 11.5399 1.41051L11.9256 2.05374ZM11.9256 18.0433L11.5399 18.6865C11.7716 18.8255 12.0601 18.8291 12.2952 18.6959C12.5303 18.5628 12.6756 18.3135 12.6756 18.0433H11.9256ZM5.25891 13.2959H2.59224V14.7959H5.25891V13.2959ZM2.59224 13.2959C2.26951 13.2959 2.00891 13.0351 2.00891 12.7135H0.508911C0.508911 13.8655 1.44298 14.7959 2.59224 14.7959V13.2959ZM2.00891 12.7135V7.3836H0.508911V12.7135H2.00891ZM2.00891 7.3836C2.00891 7.06191 2.26951 6.80113 2.59224 6.80113V5.30113C1.44298 5.30113 0.508911 6.23158 0.508911 7.3836H2.00891ZM2.59224 6.80113H5.25891V5.30113H2.59224V6.80113ZM5.6446 6.69437L12.3113 2.69697L11.5399 1.41051L4.87322 5.4079L5.6446 6.69437ZM11.1756 2.05374V18.0433H12.6756V2.05374H11.1756ZM12.3113 17.4001L5.6446 13.4027L4.87322 14.6892L11.5399 18.6865L12.3113 17.4001ZM13.8422 8.05374V12.0537H15.3422V8.05374H13.8422Z" fill="#8996B8" fill-opacity="0.6"/>
</svg>
